<?xml version="1.0" standalone="no"?>
<!DOCTYPE svg PUBLIC "-//W3C//DTD SVG 20010904//EN"
 "http://www.w3.org/TR/2001/REC-SVG-20010904/DTD/svg10.dtd">
<svg version="1.0" xmlns="http://www.w3.org/2000/svg"
 width="700.000000pt" height="700.000000pt" viewBox="0 0 700.000000 700.000000"
 preserveAspectRatio="xMidYMid meet">
<metadata>
Created by potrace 1.14, written by Peter Selinger 2001-2017
</metadata>
<g transform="translate(0.000000,700.000000) scale(0.100000,-0.100000)"
fill="#000000" stroke="none">
<path d="M3485 6245 c-5 -2 -22 -6 -38 -9 -35 -8 -101 -67 -117 -106 l-12 -30
-422 0 -421 0 -27 34 c-48 60 -134 71 -192 25 -75 -59 -74 -174 1 -227 64 -44
128 -37 185 20 l38 38 419 0 c411 0 420 0 426 -20 21 -65 106 -120 185 -120
79 0 164 55 185 120 8 25 7 25 147 1 448 -78 737 -278 814 -566 12 -45 18
-141 24 -385 12 -466 10 -459 193 -677 85 -101 110 -144 89 -151 -29 -9 -130
-97 -154 -134 -33 -49 -35 -79 -8 -123 23 -38 19 -57 -16 -76 -28 -14 -54 -57
-54 -86 0 -10 11 -35 25 -56 27 -39 27 -39 -28 -51 -19 -5 -33 -18 -44 -41
-16 -33 -16 -41 1 -125 29 -142 10 -220 -59 -243 -19 -7 -87 -6 -200 3 -248
19 -372 -4 -486 -90 -49 -36 -120 -121 -141 -167 -7 -13 -23 -24 -47 -28 -96
-18 -162 -89 -169 -184 -7 -98 53 -182 146 -206 195 -51 333 183 194 328 l-26
28 19 35 c10 19 38 53 63 75 95 88 221 118 420 100 219 -20 273 -12 335 47 78
73 99 220 51 345 -4 11 4 20 28 30 50 21 78 61 78 111 0 23 -7 52 -16 64 -15
21 -14 25 15 57 40 46 48 93 26 151 l-17 46 24 25 c14 13 54 43 89 66 l64 42
3 56 c3 66 -13 94 -147 253 -46 54 -90 114 -98 133 -27 65 -34 143 -43 465 -9
360 -14 389 -80 523 -67 136 -186 257 -337 342 -157 87 -379 158 -577 184 -90
12 -96 14 -107 41 -27 65 -147 132 -204 113z"/>
<path d="M3063 5860 c-18 -10 -39 -31 -49 -45 l-16 -25 -520 0 -519 0 -24 -25
c-14 -13 -25 -29 -25 -35 0 -6 11 -22 25 -35 l24 -25 519 0 520 0 16 -25 c41
-63 139 -84 204 -45 96 59 96 201 0 260 -43 26 -113 26 -155 0z"/>
<path d="M4184 5600 c-53 -12 -103 -49 -130 -96 l-26 -44 -410 0 -411 0 -34
39 c-77 90 -200 75 -254 -32 -65 -126 73 -261 203 -198 24 11 51 34 61 51 l18
30 414 0 413 0 27 -46 c67 -115 216 -134 310 -39 71 70 80 163 26 252 -37 59
-138 100 -207 83z"/>
<path d="M2670 5503 c-55 -38 -72 -91 -46 -145 29 -61 96 -84 156 -53 41 21
60 53 60 100 0 47 -19 79 -60 100 -38 20 -80 19 -110 -2z"/>
<path d="M3319 5121 c-41 -23 -99 -85 -99 -106 0 -13 -81 -15 -610 -15 l-611
0 -24 -25 c-31 -30 -31 -40 0 -70 l24 -25 611 0 c487 0 610 -3 610 -13 0 -24
63 -90 104 -108 108 -49 237 10 271 125 26 87 1 156 -78 220 -49 39 -142 47
-198 17z"/>
<path d="M3803 5060 c-41 -25 -63 -68 -63 -124 0 -36 6 -52 31 -81 61 -69 148
-69 209 1 37 43 42 110 10 162 -36 59 -126 80 -187 42z"/>
<path d="M3132 4650 c-135 -57 -169 -220 -68 -325 95 -99 255 -75 319 48 l19
37 388 0 388 0 19 -37 c64 -123 224 -147 319 -48 72 75 79 169 20 256 -45 66
-154 98 -233 68 -34 -13 -90 -64 -109 -101 l-15 -28 -388 0 -388 0 -27 43
c-41 64 -86 91 -160 94 -33 2 -72 -2 -84 -7z"/>
<path d="M2645 4584 c-89 -45 -99 -170 -19 -233 65 -51 165 -27 204 50 61 118
-66 244 -185 183z"/>
<path d="M3910 4148 c-28 -15 -56 -41 -75 -70 l-30 -47 -667 0 -667 -1 -39 42
c-36 38 -44 42 -98 46 -50 3 -65 0 -94 -20 -93 -63 -92 -200 2 -258 67 -41
174 -18 208 45 l13 25 671 0 671 0 23 -40 c51 -90 172 -126 262 -78 99 53 138
173 88 268 -53 99 -173 138 -268 88z"/>
<path d="M4272 3737 c-47 -18 -97 -60 -116 -101 l-17 -36 -393 0 -394 0 -19
38 c-11 20 -38 50 -60 66 -134 94 -319 -17 -300 -180 20 -178 264 -230 354
-77 l25 43 393 0 393 0 26 -45 c100 -169 367 -99 369 97 1 139 -134 240 -261
195z"/>
<path d="M2690 3648 c-39 -26 -66 -84 -56 -122 9 -37 53 -83 90 -96 48 -15
104 5 134 50 73 108 -60 241 -168 168z"/>
<path d="M870 1852 c-67 -33 -70 -51 -70 -377 0 -256 2 -294 18 -325 28 -56
68 -70 202 -70 181 0 220 32 220 183 l0 78 -77 -3 -78 -3 -5 -70 -5 -70 -43
-3 c-74 -5 -72 -12 -72 283 0 295 -2 288 72 283 l43 -3 3 -57 3 -58 79 0 80 0
0 63 c0 133 -45 167 -220 167 -89 0 -123 -4 -150 -18z"/>
<path d="M2347 1861 c-47 -10 -84 -44 -97 -90 -6 -20 -10 -174 -10 -353 l0
-318 80 0 80 0 0 125 0 125 65 0 65 0 0 -125 0 -125 75 0 75 0 0 335 c0 371
-1 380 -62 411 -36 19 -209 28 -271 15z m181 -248 l3 -143 -66 0 -65 0 0 145
0 146 63 -3 62 -3 3 -142z"/>
<path d="M3123 1855 c-60 -26 -73 -62 -73 -213 0 -204 18 -229 181 -239 l89
-6 0 -93 0 -94 -54 0 c-60 0 -66 6 -66 71 l0 39 -75 0 -75 0 0 -72 c0 -135 42
-168 215 -168 188 0 208 20 214 218 5 217 -18 251 -179 260 -47 3 -88 10 -92
16 -9 13 -10 128 -2 150 4 12 20 16 55 16 l49 0 0 -40 0 -40 80 0 80 0 0 53
c0 67 -25 117 -70 139 -45 23 -228 25 -277 3z"/>
<path d="M3913 1863 c-12 -2 -35 -19 -52 -38 -25 -28 -30 -45 -36 -110 -9 -92
1 -209 21 -247 21 -41 65 -59 165 -65 l90 -6 -3 -91 -3 -91 -55 0 -55 0 -3 53
-3 53 -77 -3 -77 -3 3 -75 c4 -129 45 -160 215 -160 193 0 212 22 212 240 0
123 -3 150 -18 173 -31 47 -62 60 -160 66 l-92 6 0 85 0 85 50 0 50 0 3 -37 3
-38 81 0 81 0 -5 65 c-10 119 -49 146 -210 144 -57 -1 -113 -4 -125 -6z"/>
<path d="M1580 1475 l0 -385 170 0 170 0 0 70 0 70 -90 0 -90 0 0 315 0 315
-80 0 -80 0 0 -385z"/>
<path d="M5130 1475 l0 -385 80 0 80 0 0 150 0 150 85 0 85 0 0 70 0 70 -85 0
-85 0 0 90 0 90 90 0 90 0 0 75 0 75 -170 0 -170 0 0 -385z"/>
<path d="M5760 1852 c0 -4 36 -115 80 -247 l80 -240 0 -137 0 -138 80 0 80 0
0 133 0 132 84 253 84 252 -77 0 -78 0 -44 -155 c-24 -85 -47 -151 -50 -147
-3 4 -16 43 -28 87 -12 44 -31 110 -42 148 l-20 67 -74 0 c-41 0 -75 -3 -75
-8z"/>
<path d="M4610 1475 l0 -375 75 0 75 0 0 375 0 375 -75 0 -75 0 0 -375z"/>
</g>
</svg>
