<svg xmlns="http://www.w3.org/2000/svg" xmlns:xlink="http://www.w3.org/1999/xlink" width="500" zoomAndPan="magnify" viewBox="0 0 375 374.999991" height="500" preserveAspectRatio="xMidYMid meet" version="1.0"><defs><g/><clipPath id="24e19607c2"><path d="M 102.195312 40.09375 L 272.445312 40.09375 L 272.445312 237.34375 L 102.195312 237.34375 Z M 102.195312 40.09375 " clip-rule="nonzero"/></clipPath></defs><g clip-path="url(#24e19607c2)"><path fill="#1890ff" d="M 124.414062 153.75 C 126.355469 153.75 128.132812 154.382812 129.558594 155.488281 C 130.785156 156.398438 131.734375 157.621094 132.328125 159.042969 L 203.652344 159.042969 C 204.324219 156.949219 205.589844 155.09375 207.25 153.75 C 209.148438 152.210938 211.5625 151.261719 214.253906 151.261719 C 217.296875 151.261719 220.027344 152.527344 222.085938 154.5 C 224.0625 156.515625 225.328125 159.242188 225.328125 162.324219 C 225.328125 165.367188 224.0625 168.171875 222.085938 170.144531 C 220.066406 172.160156 217.335938 173.386719 214.253906 173.386719 C 211.601562 173.386719 209.1875 172.476562 207.25 170.9375 C 205.589844 169.554688 204.324219 167.734375 203.652344 165.640625 L 132.367188 165.640625 C 131.773438 167.066406 130.824219 168.289062 129.597656 169.199219 C 128.175781 170.265625 126.394531 170.898438 124.457031 170.898438 C 122.082031 170.898438 119.945312 169.949219 118.363281 168.40625 C 116.820312 166.867188 115.871094 164.734375 115.871094 162.324219 C 115.871094 159.992188 116.820312 157.859375 118.363281 156.238281 C 119.90625 154.699219 122.042969 153.75 124.414062 153.75 Z M 202.503906 215.300781 C 206.695312 206.332031 213.105469 202.304688 220.027344 200.605469 C 226.988281 198.945312 234.308594 199.734375 240.359375 200.40625 L 241.984375 200.566406 L 243.328125 200.722656 C 244.15625 200.761719 244.910156 200.800781 245.582031 200.722656 C 246.253906 200.683594 246.886719 200.566406 247.402344 200.40625 C 248.074219 200.210938 248.589844 199.933594 249.0625 199.578125 C 249.539062 199.222656 249.933594 198.746094 250.25 198.234375 C 250.566406 197.71875 250.84375 197.167969 251.042969 196.535156 C 251.238281 195.824219 251.398438 195.074219 251.476562 194.324219 C 251.554688 193.296875 251.554688 192.269531 251.4375 191.28125 C 251.316406 190.175781 251.121094 189.148438 250.84375 188.277344 C 248.351562 180.296875 251.832031 178.601562 252.859375 178.285156 C 253.058594 178.203125 253.257812 178.164062 253.257812 178.164062 C 253.453125 178.164062 253.574219 178.125 253.769531 178.125 C 254.324219 178.125 254.800781 178.085938 255.15625 178.007812 C 255.472656 177.929688 255.667969 177.847656 255.828125 177.730469 C 255.511719 177.453125 255.234375 177.136719 254.917969 176.78125 C 254.523438 176.269531 254.125 175.714844 253.808594 175.125 C 253.613281 174.726562 253.453125 174.332031 253.375 173.9375 C 253.257812 173.542969 253.175781 173.148438 253.175781 172.714844 C 253.136719 172.160156 253.21875 171.648438 253.375 171.132812 C 253.535156 170.621094 253.730469 170.144531 254.085938 169.671875 C 254.363281 169.316406 254.679688 168.960938 255.078125 168.644531 C 255.433594 168.328125 255.867188 168.050781 256.34375 167.816406 C 256.539062 167.734375 256.699219 167.617188 256.855469 167.5 C 257.015625 167.378906 257.171875 167.261719 257.292969 167.105469 C 257.449219 166.945312 257.570312 166.789062 257.648438 166.628906 C 257.726562 166.472656 257.804688 166.3125 257.84375 166.195312 C 257.84375 166.078125 257.84375 165.957031 257.84375 165.878906 C 257.84375 165.800781 257.804688 165.761719 257.804688 165.683594 C 257.765625 165.640625 257.726562 165.5625 257.6875 165.523438 C 257.648438 165.484375 257.609375 165.40625 257.527344 165.367188 C 257.292969 165.128906 257.09375 164.890625 256.894531 164.65625 L 256.816406 164.574219 L 256.738281 164.574219 L 256.382812 163.863281 C 255.984375 163.113281 255.789062 162.324219 255.789062 161.496094 C 255.789062 160.664062 255.945312 159.835938 256.300781 159.003906 C 256.539062 158.414062 256.855469 157.820312 257.25 157.226562 C 257.648438 156.636719 258.121094 156.042969 258.675781 155.449219 C 259.625 154.421875 260.851562 153.394531 262.195312 152.40625 C 263.421875 151.5 264.808594 150.667969 266.230469 149.878906 C 266.152344 149.722656 266.035156 149.484375 265.914062 149.207031 C 264.847656 147.191406 262.511719 144.507812 260.21875 141.820312 C 260.179688 141.820312 260.179688 141.78125 260.140625 141.78125 C 257.527344 138.777344 254.917969 135.777344 253.574219 133.167969 C 252.109375 130.363281 251.398438 126.925781 251 122.660156 C 250.605469 118.511719 250.527344 113.457031 250.449219 107.214844 C 250.449219 105.121094 250.410156 102.90625 250.367188 100.496094 C 250.328125 98.128906 250.25 95.597656 250.171875 92.835938 C 250.171875 92.398438 250.132812 91.925781 250.09375 91.371094 C 250.050781 90.898438 250.011719 90.382812 249.972656 89.910156 C 249.222656 83.433594 246.730469 78.019531 242.972656 73.515625 C 238.738281 68.417969 232.921875 64.390625 226.316406 61.425781 C 222.085938 59.492188 217.535156 57.992188 212.867188 56.84375 C 208.199219 55.660156 203.335938 54.828125 198.585938 54.355469 C 197.953125 56.449219 196.6875 58.265625 195.066406 59.609375 C 193.167969 61.191406 190.714844 62.136719 187.984375 62.136719 C 185.375 62.136719 182.960938 61.230469 181.023438 59.6875 C 179.363281 58.304688 178.097656 56.488281 177.421875 54.394531 L 132.644531 54.394531 C 132.050781 55.660156 131.179688 56.726562 130.113281 57.515625 C 128.765625 58.503906 127.144531 59.058594 125.40625 59.058594 C 123.191406 59.058594 121.210938 58.1875 119.746094 56.726562 C 118.324219 55.304688 117.453125 53.328125 117.453125 51.117188 C 117.453125 48.945312 118.324219 46.96875 119.746094 45.507812 C 121.210938 44.085938 123.191406 43.175781 125.40625 43.175781 C 127.144531 43.175781 128.765625 43.769531 130.113281 44.757812 C 131.179688 45.546875 132.050781 46.613281 132.644531 47.878906 L 176.199219 47.878906 L 177.464844 47.71875 C 178.136719 45.664062 179.441406 43.847656 181.101562 42.503906 C 183 41.003906 185.375 40.09375 187.984375 40.09375 C 190.597656 40.09375 193.007812 41.003906 194.949219 42.542969 C 196.609375 43.886719 197.914062 45.703125 198.546875 47.835938 C 203.808594 48.3125 209.148438 49.179688 214.332031 50.484375 C 219.394531 51.75 224.378906 53.367188 228.96875 55.460938 C 236.601562 58.898438 243.289062 63.5625 248.191406 69.566406 C 252.625 74.9375 255.589844 81.457031 256.5 89.238281 C 256.539062 89.792969 256.578125 90.34375 256.617188 90.9375 C 256.660156 91.453125 256.699219 92.042969 256.738281 92.675781 C 256.816406 95.363281 256.855469 97.929688 256.894531 100.378906 C 256.933594 102.75 256.976562 105 257.015625 107.175781 C 257.171875 118.867188 257.25 125.980469 259.425781 130.246094 C 260.417969 132.179688 262.710938 134.828125 265.042969 137.515625 L 265.042969 137.554688 C 266.351562 139.015625 267.65625 140.515625 268.804688 141.9375 C 269.949219 143.402344 270.980469 144.863281 271.691406 146.207031 C 272.640625 148.023438 273.113281 149.761719 272.878906 151.300781 C 272.640625 153 271.613281 154.421875 269.632812 155.449219 C 268.328125 156.121094 267.140625 156.871094 266.074219 157.621094 C 265.042969 158.375 264.136719 159.164062 263.421875 159.914062 C 263.144531 160.230469 262.871094 160.507812 262.710938 160.78125 C 262.59375 160.902344 262.550781 161.019531 262.472656 161.097656 C 262.632812 161.257812 262.75 161.453125 262.910156 161.613281 C 263.1875 162.007812 263.421875 162.363281 263.621094 162.757812 C 263.976562 163.546875 264.214844 164.300781 264.332031 165.089844 C 264.410156 165.917969 264.371094 166.707031 264.214844 167.539062 C 264.054688 168.25 263.777344 168.960938 263.421875 169.671875 C 263.066406 170.34375 262.59375 170.976562 262.078125 171.566406 C 261.683594 171.964844 261.246094 172.359375 260.773438 172.714844 C 260.613281 172.832031 260.457031 172.910156 260.296875 173.03125 C 260.457031 173.1875 260.613281 173.304688 260.695312 173.386719 C 261.167969 173.703125 261.523438 174.136719 261.839844 174.6875 C 262.117188 175.164062 262.316406 175.753906 262.433594 176.347656 C 262.511719 176.863281 262.550781 177.414062 262.472656 178.007812 C 262.433594 178.519531 262.355469 179.035156 262.15625 179.628906 C 261.960938 180.21875 261.644531 180.851562 261.207031 181.445312 C 260.8125 181.957031 260.335938 182.472656 259.742188 182.90625 C 259.070312 183.417969 258.242188 183.855469 257.25 184.171875 C 256.976562 184.25 256.699219 184.328125 256.382812 184.40625 C 256.578125 184.882812 256.816406 185.511719 257.054688 186.304688 C 257.449219 187.527344 257.765625 188.988281 257.925781 190.570312 C 258.042969 191.953125 258.082031 193.414062 257.925781 194.875 C 257.84375 196.140625 257.609375 197.363281 257.210938 198.550781 C 256.855469 199.65625 256.382812 200.722656 255.75 201.710938 C 255.035156 202.816406 254.125 203.84375 253.019531 204.714844 C 251.992188 205.503906 250.765625 206.136719 249.339844 206.570312 C 248.390625 206.886719 247.363281 207.082031 246.214844 207.164062 C 245.148438 207.28125 244 207.242188 242.695312 207.121094 C 241.546875 207.042969 240.675781 206.925781 239.847656 206.847656 L 239.6875 206.808594 C 234.546875 206.253906 228.296875 205.582031 222.597656 206.847656 C 217.296875 208.03125 212.3125 210.953125 208.953125 217.355469 C 210.179688 218.261719 211.246094 219.410156 211.996094 220.753906 C 212.945312 222.371094 213.5 224.269531 213.5 226.28125 C 213.5 229.324219 212.273438 232.050781 210.257812 234.105469 C 208.277344 236.121094 205.511719 237.34375 202.425781 237.34375 C 199.339844 237.34375 196.570312 236.121094 194.59375 234.105469 C 192.613281 232.128906 191.347656 229.363281 191.347656 226.28125 C 191.347656 223.242188 192.574219 220.4375 194.59375 218.460938 C 196.609375 216.445312 199.339844 215.222656 202.425781 215.222656 L 202.503906 215.222656 Z M 147.714844 178.046875 C 149.613281 178.046875 151.355469 178.796875 152.621094 180.0625 C 153.847656 181.324219 154.636719 183.0625 154.636719 184.960938 C 154.636719 186.855469 153.847656 188.59375 152.621094 189.859375 C 151.355469 191.125 149.613281 191.875 147.714844 191.875 C 145.777344 191.875 144.078125 191.125 142.808594 189.859375 C 141.542969 188.59375 140.753906 186.855469 140.753906 184.960938 C 140.753906 183.0625 141.542969 181.324219 142.808594 180.0625 C 144.078125 178.796875 145.777344 178.046875 147.714844 178.046875 Z M 169.511719 174.332031 C 172.042969 174.332031 174.378906 175.203125 176.238281 176.703125 C 177.820312 177.96875 179.046875 179.707031 179.679688 181.722656 L 221.609375 181.722656 C 222.28125 179.585938 223.546875 177.769531 225.210938 176.425781 C 227.109375 174.886719 229.523438 173.9375 232.210938 173.9375 C 235.257812 173.9375 237.988281 175.164062 240.042969 177.179688 C 242.023438 179.191406 243.289062 181.917969 243.289062 185 C 243.289062 188.042969 242.023438 190.847656 240.042969 192.820312 C 238.027344 194.835938 235.296875 196.0625 232.210938 196.0625 C 229.5625 196.0625 227.148438 195.152344 225.210938 193.574219 C 223.546875 192.230469 222.28125 190.414062 221.609375 188.316406 L 179.679688 188.316406 C 179.046875 190.292969 177.820312 192.03125 176.238281 193.335938 C 174.417969 194.796875 172.082031 195.667969 169.511719 195.667969 C 166.546875 195.667969 163.894531 194.480469 161.917969 192.585938 C 160.019531 190.648438 158.792969 188.003906 158.792969 185 C 158.792969 182.078125 160.019531 179.390625 161.917969 177.453125 C 163.855469 175.519531 166.585938 174.332031 169.511719 174.332031 Z M 207.566406 102.472656 C 209.742188 102.472656 211.679688 103.34375 213.105469 104.765625 C 214.488281 106.1875 215.359375 108.121094 215.359375 110.253906 C 215.359375 112.390625 214.488281 114.324219 213.105469 115.746094 C 211.679688 117.167969 209.742188 118.039062 207.566406 118.039062 C 205.429688 118.039062 203.492188 117.167969 202.070312 115.746094 C 200.683594 114.363281 199.8125 112.390625 199.8125 110.253906 C 199.8125 108.121094 200.683594 106.148438 202.070312 104.765625 C 203.492188 103.34375 205.429688 102.472656 207.566406 102.472656 Z M 146.132812 78.96875 C 147.914062 78.96875 149.535156 79.679688 150.722656 80.863281 C 151.910156 82.050781 152.621094 83.667969 152.621094 85.445312 C 152.621094 87.265625 151.910156 88.882812 150.722656 90.027344 L 150.722656 90.070312 C 149.535156 91.214844 147.914062 91.964844 146.132812 91.964844 C 144.3125 91.964844 142.691406 91.214844 141.542969 90.070312 L 141.503906 90.027344 C 140.359375 88.882812 139.605469 87.265625 139.605469 85.445312 C 139.605469 83.667969 140.359375 82.050781 141.503906 80.863281 L 141.542969 80.863281 C 142.652344 79.679688 144.3125 78.96875 146.132812 78.96875 Z M 145.066406 128.191406 C 147.203125 128.191406 149.140625 129.058594 150.5625 130.441406 C 151.988281 131.867188 152.859375 133.800781 152.859375 135.972656 C 152.859375 138.105469 151.988281 140.042969 150.5625 141.464844 C 149.140625 142.847656 147.203125 143.71875 145.066406 143.71875 C 142.929688 143.71875 140.949219 142.847656 139.566406 141.464844 C 138.140625 140.042969 137.273438 138.105469 137.273438 135.972656 C 137.273438 133.800781 138.140625 131.867188 139.566406 130.441406 C 140.910156 129.058594 142.851562 128.191406 145.066406 128.191406 Z M 168.207031 59.570312 C 170.539062 59.570312 172.636719 60.519531 174.21875 62.019531 C 175.761719 63.5625 176.710938 65.695312 176.710938 68.0625 C 176.710938 70.433594 175.761719 72.488281 174.21875 74.070312 C 172.675781 75.609375 170.582031 76.558594 168.207031 76.558594 C 166.269531 76.558594 164.527344 75.925781 163.105469 74.859375 C 161.917969 73.949219 160.96875 72.765625 160.375 71.34375 L 105.507812 71.34375 C 104.597656 71.34375 103.765625 70.988281 103.171875 70.394531 C 102.578125 69.800781 102.222656 68.972656 102.222656 68.023438 C 102.222656 67.078125 102.578125 66.285156 103.171875 65.695312 C 103.765625 65.101562 104.597656 64.746094 105.507812 64.746094 L 160.335938 64.746094 C 160.929688 63.363281 161.878906 62.136719 163.0625 61.269531 C 164.488281 60.203125 166.269531 59.570312 168.207031 59.570312 Z M 182.40625 99.234375 C 185.453125 99.234375 188.261719 100.457031 190.242188 102.472656 C 192.257812 104.449219 193.484375 107.214844 193.484375 110.296875 C 193.484375 113.375 192.257812 116.140625 190.242188 118.117188 C 188.261719 120.132812 185.492188 121.355469 182.40625 121.355469 C 179.757812 121.355469 177.34375 120.410156 175.40625 118.867188 C 173.746094 117.523438 172.480469 115.707031 171.847656 113.613281 L 107.683594 113.613281 C 106.773438 113.613281 105.980469 113.21875 105.386719 112.625 L 105.347656 112.625 C 104.796875 112.035156 104.398438 111.242188 104.398438 110.335938 C 104.398438 109.425781 104.796875 108.636719 105.347656 108.042969 C 105.941406 107.449219 106.773438 107.054688 107.683594 107.054688 L 171.847656 107.054688 C 172.480469 104.960938 173.746094 103.144531 175.40625 101.800781 C 177.304688 100.183594 179.757812 99.234375 182.40625 99.234375 Z M 163.738281 76.914062 C 165.636719 76.914062 167.453125 77.546875 168.878906 78.652344 C 170.066406 79.558594 171.015625 80.785156 171.609375 82.207031 L 215.796875 82.207031 C 216.46875 80.113281 217.734375 78.257812 219.394531 76.914062 C 221.292969 75.371094 223.707031 74.425781 226.398438 74.425781 C 229.441406 74.425781 232.171875 75.6875 234.230469 77.664062 C 236.207031 79.679688 237.433594 82.40625 237.433594 85.484375 C 237.433594 88.566406 236.207031 91.332031 234.230469 93.308594 C 232.210938 95.324219 229.480469 96.546875 226.398438 96.546875 C 223.746094 96.546875 221.332031 95.640625 219.394531 94.097656 C 217.734375 92.714844 216.46875 90.898438 215.796875 88.804688 L 171.648438 88.804688 C 171.054688 90.226562 170.105469 91.453125 168.917969 92.359375 C 167.496094 93.425781 165.675781 94.058594 163.777344 94.058594 C 161.402344 94.058594 159.265625 93.109375 157.683594 91.570312 C 156.140625 90.027344 155.152344 87.894531 155.152344 85.484375 C 155.152344 83.15625 156.140625 81.023438 157.683594 79.402344 C 159.226562 77.863281 161.363281 76.914062 163.738281 76.914062 Z M 171.6875 124.914062 C 174.296875 124.914062 176.75 125.820312 178.691406 127.363281 C 180.351562 128.703125 181.617188 130.5625 182.25 132.65625 L 223.824219 132.65625 C 224.457031 130.5625 225.722656 128.703125 227.386719 127.363281 C 229.285156 125.820312 231.699219 124.914062 234.386719 124.914062 C 237.433594 124.914062 240.242188 126.136719 242.21875 128.113281 C 244.199219 130.128906 245.464844 132.890625 245.464844 135.972656 C 245.464844 138.976562 244.238281 141.742188 242.21875 143.796875 C 240.242188 145.769531 237.472656 146.996094 234.386719 146.996094 C 231.738281 146.996094 229.324219 146.085938 227.386719 144.546875 C 225.722656 143.203125 224.457031 141.347656 223.824219 139.253906 L 182.25 139.253906 C 181.617188 141.347656 180.351562 143.203125 178.691406 144.546875 C 176.789062 146.085938 174.339844 146.996094 171.6875 146.996094 C 168.640625 146.996094 165.832031 145.769531 163.855469 143.796875 C 161.835938 141.78125 160.613281 139.015625 160.613281 135.972656 C 160.613281 132.933594 161.835938 130.128906 163.855469 128.113281 C 165.832031 126.136719 168.640625 124.914062 171.6875 124.914062 Z M 171.6875 124.914062 " fill-opacity="1" fill-rule="nonzero"/></g><g fill="#000000" fill-opacity="1"><g transform="translate(39.594205, 316.49918)"><g><path d="M 18.46875 -6.71875 L 18.46875 -13.078125 L 26.90625 -13.078125 L 26.90625 -7.734375 C 26.90625 -2.148438 24.28125 0.640625 19.03125 0.640625 L 11.046875 0.640625 C 5.796875 0.640625 3.171875 -2.148438 3.171875 -7.734375 L 3.171875 -33.3125 C 3.171875 -38.894531 5.796875 -41.6875 11.046875 -41.6875 L 19.03125 -41.6875 C 24.28125 -41.6875 26.90625 -38.894531 26.90625 -33.3125 L 26.90625 -29.4375 L 18.46875 -29.4375 L 18.46875 -34.390625 C 18.46875 -34.734375 18.347656 -35.03125 18.109375 -35.28125 C 17.878906 -35.53125 17.597656 -35.65625 17.265625 -35.65625 L 13.265625 -35.65625 C 12.921875 -35.65625 12.632812 -35.53125 12.40625 -35.28125 C 12.175781 -35.03125 12.0625 -34.734375 12.0625 -34.390625 L 12.0625 -6.71875 C 12.0625 -6.382812 12.175781 -6.085938 12.40625 -5.828125 C 12.632812 -5.578125 12.921875 -5.453125 13.265625 -5.453125 L 17.265625 -5.453125 C 17.597656 -5.453125 17.878906 -5.578125 18.109375 -5.828125 C 18.347656 -6.085938 18.46875 -6.382812 18.46875 -6.71875 Z M 18.46875 -6.71875 "/></g></g></g><g fill="#000000" fill-opacity="1"><g transform="translate(81.270203, 316.49918)"><g><path d="M 12.0625 -7.484375 L 21.765625 -7.484375 L 21.765625 0 L 3.171875 0 L 3.171875 -41.046875 L 12.0625 -41.046875 Z M 12.0625 -7.484375 "/></g></g></g><g fill="#1890ff" fill-opacity="1"><g transform="translate(116.663558, 316.49918)"><g><path d="M 19.484375 -41.6875 C 24.722656 -41.6875 27.34375 -38.894531 27.34375 -33.3125 L 27.34375 0 L 18.46875 0 L 18.46875 -13.765625 L 12.0625 -13.765625 L 12.0625 0 L 3.171875 0 L 3.171875 -33.3125 C 3.171875 -38.894531 5.796875 -41.6875 11.046875 -41.6875 Z M 12.0625 -20.625 L 18.46875 -20.625 L 18.46875 -34.390625 C 18.46875 -34.734375 18.347656 -35.03125 18.109375 -35.28125 C 17.878906 -35.53125 17.597656 -35.65625 17.265625 -35.65625 L 13.265625 -35.65625 C 12.921875 -35.65625 12.632812 -35.53125 12.40625 -35.28125 C 12.175781 -35.03125 12.0625 -34.734375 12.0625 -34.390625 Z M 12.0625 -20.625 "/></g></g></g><g fill="#000000" fill-opacity="1"><g transform="translate(160.043269, 316.49918)"><g><path d="M 25.953125 -30.265625 L 17.515625 -30.265625 L 17.515625 -33.5 C 17.515625 -33.84375 17.394531 -34.140625 17.15625 -34.390625 C 16.925781 -34.640625 16.644531 -34.765625 16.3125 -34.765625 L 12.8125 -34.765625 C 12.476562 -34.765625 12.191406 -34.640625 11.953125 -34.390625 C 11.722656 -34.140625 11.609375 -33.84375 11.609375 -33.5 L 11.609375 -26.203125 C 11.609375 -25.867188 11.722656 -25.570312 11.953125 -25.3125 C 12.191406 -25.0625 12.476562 -24.9375 12.8125 -24.9375 L 18.53125 -24.9375 C 23.769531 -24.851562 26.390625 -22.0625 26.390625 -16.5625 L 26.390625 -7.734375 C 26.390625 -2.148438 23.769531 0.640625 18.53125 0.640625 L 11.046875 0.640625 C 5.796875 0.640625 3.171875 -2.148438 3.171875 -7.734375 L 3.171875 -12 L 11.609375 -12 L 11.609375 -7.421875 C 11.609375 -7.085938 11.722656 -6.789062 11.953125 -6.53125 C 12.191406 -6.28125 12.476562 -6.15625 12.8125 -6.15625 L 16.75 -6.15625 C 17.09375 -6.15625 17.378906 -6.28125 17.609375 -6.53125 C 17.835938 -6.789062 17.953125 -7.085938 17.953125 -7.421875 L 17.953125 -15.484375 C 17.953125 -15.816406 17.835938 -16.109375 17.609375 -16.359375 C 17.378906 -16.617188 17.09375 -16.75 16.75 -16.75 L 11.046875 -16.75 C 5.796875 -16.75 3.171875 -19.539062 3.171875 -25.125 L 3.171875 -33.3125 C 3.171875 -38.894531 5.796875 -41.6875 11.046875 -41.6875 L 18.078125 -41.6875 C 23.328125 -41.6875 25.953125 -38.894531 25.953125 -33.3125 Z M 25.953125 -30.265625 "/></g></g></g><g fill="#000000" fill-opacity="1"><g transform="translate(201.719267, 316.49918)"><g><path d="M 25.953125 -30.265625 L 17.515625 -30.265625 L 17.515625 -33.5 C 17.515625 -33.84375 17.394531 -34.140625 17.15625 -34.390625 C 16.925781 -34.640625 16.644531 -34.765625 16.3125 -34.765625 L 12.8125 -34.765625 C 12.476562 -34.765625 12.191406 -34.640625 11.953125 -34.390625 C 11.722656 -34.140625 11.609375 -33.84375 11.609375 -33.5 L 11.609375 -26.203125 C 11.609375 -25.867188 11.722656 -25.570312 11.953125 -25.3125 C 12.191406 -25.0625 12.476562 -24.9375 12.8125 -24.9375 L 18.53125 -24.9375 C 23.769531 -24.851562 26.390625 -22.0625 26.390625 -16.5625 L 26.390625 -7.734375 C 26.390625 -2.148438 23.769531 0.640625 18.53125 0.640625 L 11.046875 0.640625 C 5.796875 0.640625 3.171875 -2.148438 3.171875 -7.734375 L 3.171875 -12 L 11.609375 -12 L 11.609375 -7.421875 C 11.609375 -7.085938 11.722656 -6.789062 11.953125 -6.53125 C 12.191406 -6.28125 12.476562 -6.15625 12.8125 -6.15625 L 16.75 -6.15625 C 17.09375 -6.15625 17.378906 -6.28125 17.609375 -6.53125 C 17.835938 -6.789062 17.953125 -7.085938 17.953125 -7.421875 L 17.953125 -15.484375 C 17.953125 -15.816406 17.835938 -16.109375 17.609375 -16.359375 C 17.378906 -16.617188 17.09375 -16.75 16.75 -16.75 L 11.046875 -16.75 C 5.796875 -16.75 3.171875 -19.539062 3.171875 -25.125 L 3.171875 -33.3125 C 3.171875 -38.894531 5.796875 -41.6875 11.046875 -41.6875 L 18.078125 -41.6875 C 23.328125 -41.6875 25.953125 -38.894531 25.953125 -33.3125 Z M 25.953125 -30.265625 "/></g></g></g><g fill="#1890ff" fill-opacity="1"><g transform="translate(243.386458, 316.49918)"><g><path d="M 12.0625 -41.046875 L 12.0625 0 L 3.171875 0 L 3.171875 -41.046875 Z M 12.0625 -41.046875 "/></g></g></g><g fill="#000000" fill-opacity="1"><g transform="translate(271.468328, 316.49918)"><g><path d="M 12.0625 -16.109375 L 12.0625 0 L 3.171875 0 L 3.171875 -41.046875 L 21.703125 -41.046875 L 21.703125 -33.375 L 12.0625 -33.375 L 12.0625 -23.546875 L 21.0625 -23.546875 L 21.0625 -16.109375 Z M 12.0625 -16.109375 "/></g></g></g><g fill="#000000" fill-opacity="1"><g transform="translate(307.816577, 316.49918)"><g><path d="M 26.96875 -41.046875 L 18.140625 -14.96875 L 18.140625 0 L 9.265625 0 L 9.265625 -14.96875 L 0.4375 -41.046875 L 8.8125 -41.046875 L 13.703125 -23.921875 L 18.59375 -41.046875 Z M 26.96875 -41.046875 "/></g></g></g></svg>